# Made using Asset Forge (www.assetforge.io) version 1.3 

mtllib rook-small-nofrill-nodoor-stone.mtl 

g wall_straight_1

v 0.4375 0 0.5
v 0.4375 1 0.5
v 0.5 -2.707168E-16 0.5625
v 0.5 1 0.5625
v 0.5 -6.316725E-16 -0.5625
v 0.5 1 -0.5625
v 0.4375 0 -0.5
v 0.4375 1 -0.5
v 0.5625 1 0.5
v 0.5625 0 0.5
v 0.5625 1 -0.5
v 0.5625 0 -0.5
vn -0.7071068 0 0.7071068
vn -0.7071068 0 -0.7071068
vn 0.7071068 0 0.7071068
vn 0 1 0
vn 0 -1 0
vn 0.7071068 0 -0.7071068
vn 1 0 0
vn -1 0 0
vt 0.4375 0
vt 0.4375 1
vt 0.5 -2.707168E-16
vt 0.5 1
vt -0.5 -6.316725E-16
vt -0.5 1
vt -0.4375 0
vt -0.4375 1
vt 0.5625 1
vt 0.5625 0
vt -0.5625 -0.5
vt -0.5625 0.5
vt -0.5 -0.5625
vt -0.5 0.5625
vt -0.4375 -0.5
vt -0.4375 0.5
vt -0.5625 1
vt -0.5625 0
vt 0.5 0
vt -0.5 0

usemtl stone (Instance) (Instance)
# usemap stone (Instance) (Instance)
f 3/3/1 2/2/1 1/1/1
f 2/2/1 3/3/1 4/4/1
f 7/7/2 6/6/2 5/5/2
f 6/6/2 7/7/2 8/8/2
f 4/4/3 10/10/3 9/9/3
f 10/10/3 4/4/3 3/3/3
f 6/13/4 9/12/4 11/11/4
f 9/12/4 6/13/4 4/14/4
f 4/14/4 6/13/4 8/15/4
f 4/14/4 8/15/4 2/16/4
f 3/13/5 12/12/5 10/11/5
f 12/12/5 3/13/5 5/14/5
f 5/14/5 3/13/5 1/15/5
f 5/14/5 1/15/5 7/16/5
f 11/17/6 5/5/6 6/6/6
f 5/5/6 11/17/6 12/18/6
f 9/6/7 12/19/7 11/4/7
f 12/19/7 9/6/7 10/20/7
f 1/19/8 8/6/8 7/20/8
f 8/6/8 1/19/8 2/4/8
g wall_straight_2

v -0.5625 0 0.5
v -0.5625 1 0.5
v -0.5 -2.707168E-16 0.5625
v -0.5 1 0.5625
v -0.5 -6.316725E-16 -0.5625
v -0.5 1 -0.5625
v -0.5625 0 -0.5
v -0.5625 1 -0.5
v -0.4375 1 0.5
v -0.4375 0 0.5
v -0.4375 1 -0.5
v -0.4375 0 -0.5
vt -0.5 -2.707168E-16
vt 0.5 -6.316725E-16
vt 0.4375 -0.5
vt 0.4375 0.5
vt 0.5 -0.5625
vt 0.5 0.5625
vt 0.5625 -0.5
vt 0.5625 0.5

usemtl stone (Instance) (Instance)
# usemap stone (Instance) (Instance)
f 15/21/1 14/17/1 13/18/1
f 14/17/1 15/21/1 16/6/1
f 19/10/2 18/4/2 17/22/2
f 18/4/2 19/10/2 20/9/2
f 16/6/3 22/7/3 21/8/3
f 22/7/3 16/6/3 15/21/3
f 18/25/4 21/24/4 23/23/4
f 21/24/4 18/25/4 16/26/4
f 16/26/4 18/25/4 20/27/4
f 16/26/4 20/27/4 14/28/4
f 15/25/5 24/24/5 22/23/5
f 24/24/5 15/25/5 17/26/5
f 17/26/5 15/25/5 13/27/5
f 17/26/5 13/27/5 19/28/5
f 23/2/6 17/22/6 18/4/6
f 17/22/6 23/2/6 24/1/6
f 21/6/7 24/19/7 23/4/7
f 24/19/7 21/6/7 22/20/7
f 13/19/8 20/6/8 19/20/8
f 20/6/8 13/19/8 14/4/8
g wall_straight_3

v -0.5000001 0 0.4375
v -0.5000001 1 0.4375
v -0.5625001 -2.707168E-16 0.4999999
v -0.5625001 1 0.4999999
v 0.5625 -6.316725E-16 0.5000001
v 0.5625 1 0.5000001
v 0.5 0 0.4375001
v 0.5 1 0.4375001
v -0.5000001 1 0.5624999
v -0.5000001 0 0.5624999
v 0.5 1 0.5625001
v 0.5 0 0.5625001
vn -0.7071068 0 -0.7071069
vn 0.7071069 0 -0.7071068
vn -0.7071069 0 0.7071068
vn 0.7071068 0 0.7071069
vn -1.192093E-07 0 1
vn 1.192093E-07 0 -1
vt 0.5000001 0
vt 0.5000001 1
vt 0.5625001 -2.707168E-16
vt 0.5625001 1
vt -0.5625 -6.316725E-16
vt -0.5000001 1
vt -0.5000001 0
vt -0.5625001 1
vt -0.5625001 -2.707168E-16
vt -0.5 0.5625001
vt 0.5000001 0.5625
vt -0.5625 0.5000001
vt 0.5625001 0.5
vt -0.5 0.4375001
vt 0.5000001 0.4375
vt 0.5000001 -0.5625
vt -0.5 -0.5625001
vt 0.5625001 -0.5
vt -0.5625 -0.5000001
vt 0.5000001 -0.4375
vt -0.5 -0.4375001
vt 0.5625 -6.316725E-16

usemtl stone (Instance) (Instance)
# usemap stone (Instance) (Instance)
f 27/31/9 26/30/9 25/29/9
f 26/30/9 27/31/9 28/32/9
f 31/20/10 30/17/10 29/33/10
f 30/17/10 31/20/10 32/6/10
f 28/36/11 34/35/11 33/34/11
f 34/35/11 28/36/11 27/37/11
f 30/40/4 33/39/4 35/38/4
f 33/39/4 30/40/4 28/41/4
f 28/41/4 30/40/4 32/42/4
f 28/41/4 32/42/4 26/43/4
f 27/46/5 36/45/5 34/44/5
f 36/45/5 27/46/5 29/47/5
f 29/47/5 27/46/5 25/48/5
f 29/47/5 25/48/5 31/49/5
f 35/4/12 29/50/12 30/9/12
f 29/50/12 35/4/12 36/19/12
f 33/34/13 36/19/13 35/4/13
f 36/19/13 33/34/13 34/35/13
f 25/29/14 32/6/14 31/20/14
f 32/6/14 25/29/14 26/30/14
g wall_straight_4

v -0.5000001 0 -0.5625
v -0.5000001 1 -0.5625
v -0.5625001 -2.707168E-16 -0.5000001
v -0.5625001 1 -0.5000001
v 0.5625 -6.316725E-16 -0.4999999
v 0.5625 1 -0.4999999
v 0.5 0 -0.5624999
v 0.5 1 -0.5624999
v -0.5000001 1 -0.4375001
v -0.5000001 0 -0.4375001
v 0.5 1 -0.4374999
v 0.5 0 -0.4374999
vt -0.5 -0.4374999
vt -0.5625 -0.4999999
vt -0.5 -0.5624999
vt -0.5 0.4374999
vt -0.5625 0.4999999
vt -0.5 0.5624999

usemtl stone (Instance) (Instance)
# usemap stone (Instance) (Instance)
f 39/31/9 38/30/9 37/29/9
f 38/30/9 39/31/9 40/32/9
f 43/20/10 42/17/10 41/33/10
f 42/17/10 43/20/10 44/6/10
f 40/36/11 46/35/11 45/34/11
f 46/35/11 40/36/11 39/37/11
f 42/52/4 45/48/4 47/51/4
f 45/48/4 42/52/4 40/46/4
f 40/46/4 42/52/4 44/53/4
f 40/46/4 44/53/4 38/44/4
f 39/41/5 48/54/5 46/43/5
f 48/54/5 39/41/5 41/55/5
f 41/55/5 39/41/5 37/39/5
f 41/55/5 37/39/5 43/56/5
f 47/4/12 41/50/12 42/9/12
f 41/50/12 47/4/12 48/19/12
f 45/34/13 48/19/13 47/4/13
f 48/19/13 45/34/13 46/35/13
f 37/29/14 44/6/14 43/20/14
f 44/6/14 37/29/14 38/30/14
g battlement_corner_5

v 0.5625 1.25 -0.375
v 0.5625 1.25 -0.125
v 0.4375 1.25 -0.375
v 0.4375 1.25 -0.125
v 0.4375 1.5 -0.125
v 0.5625 1.5 -0.125
v 0.5625 1.25 0.125
v 0.4375 1.25 0.125
v 0.5625 1.5 0.125
v 0.4375 1.5 0.125
v 0.5 1.5 -0.5625
v 0.5625 1.5 -0.5
v 0.4375 1.5 -0.5
v 0.5625 1.5 -0.375
v 0.4375 1.5 -0.375
v 0.5625 1.25 0.375
v 0.4375 1.25 0.375
v 0.5625 1.5 0.5
v 0.5625 1.5 0.375
v 0.4375 1.5 0.375
v 0.5 1.5 0.5625
v 0.4375 1.5 0.4375
v 0.375 1.5 0.5625
v 0.375 1.5 0.4375
v -0.5 1 0.4375
v -0.5625 1.5 0.5
v -0.5 1.5 0.4375
v -0.125 1.25 0.4375
v -0.125 1.5 0.4375
v -0.125 1.25 0.5625
v -0.125 1.5 0.5625
v 0.125 1.5 0.4375
v 0.125 1.5 0.5625
v 0.375 1.25 0.4375
v 0.375 1.25 0.5625
v -0.375 1.25 0.4375
v -0.375 1.25 0.5625
v 0.4375 1 0.4375
v 0.125 1.25 0.4375
v -0.375 1.5 0.4375
v 0.125 1.25 0.5625
v -0.5 1.5 0.5625
v -0.375 1.5 0.5625
vn 0 0 -1
vn 0 0 1
vt -0.5625 -0.375
vt -0.5625 -0.125
vt -0.4375 -0.375
vt -0.4375 -0.125
vt -0.4375 1.25
vt -0.5625 1.25
vt -0.4375 1.5
vt -0.5625 1.5
vt 0.5625 1.25
vt 0.4375 1.25
vt 0.5625 1.5
vt 0.4375 1.5
vt -0.5625 0.125
vt -0.4375 0.125
vt -0.5 1.5
vt -0.5625 0.375
vt -0.4375 0.375
vt 0.125 1.5
vt 0.125 1.25
vt -0.125 1.5
vt -0.125 1.25
vt 0.375 1.25
vt 0.375 1.5
vt 0.5 1.5
vt -0.375 1.25
vt -0.375 1.5
vt -0.4375 0.4375
vt -0.375 0.5625
vt -0.375 0.4375
vt -0.125 0.4375
vt -0.125 0.5625
vt 0.125 0.4375
vt 0.125 0.5625
vt 0.375 0.4375
vt 0.375 0.5625
vt -0.4375 -0.4375
vt 0.5 -0.4375
vt 0.5 0.4375

usemtl stone (Instance) (Instance)
# usemap stone (Instance) (Instance)
f 51/59/4 50/58/4 49/57/4
f 50/58/4 51/59/4 52/60/4
f 53/63/15 50/62/15 52/61/15
f 50/62/15 53/63/15 54/64/15
f 57/67/16 56/66/16 55/65/16
f 56/66/16 57/67/16 58/68/16
f 53/60/4 57/69/4 54/58/4
f 57/69/4 53/60/4 58/70/4
f 60/64/6 6/6/6 59/71/6
f 6/6/6 60/64/6 11/17/6
f 8/8/2 59/71/2 6/6/2
f 59/71/2 8/8/2 61/63/2
f 59/13/4 62/57/4 60/11/4
f 62/57/4 59/13/4 63/59/4
f 63/59/4 59/13/4 61/15/4
f 56/70/4 64/72/4 55/69/4
f 64/72/4 56/70/4 65/73/4
f 62/67/16 51/66/16 49/65/16
f 51/66/16 62/67/16 63/68/16
f 57/76/7 50/75/7 54/74/7
f 55/77/7 50/75/7 57/76/7
f 9/6/7 50/75/7 55/77/7
f 9/6/7 49/78/7 50/75/7
f 11/4/7 49/78/7 9/6/7
f 11/4/7 62/79/7 49/78/7
f 62/79/7 11/4/7 60/80/7
f 9/6/7 55/77/7 64/81/7
f 9/6/7 64/81/7 66/71/7
f 66/71/7 64/81/7 67/82/7
f 68/73/4 66/12/4 67/72/4
f 66/12/4 68/73/4 69/14/4
f 69/14/4 68/73/4 70/83/4
f 69/14/4 70/83/4 71/84/4
f 71/84/4 70/83/4 72/85/4
f 68/63/15 64/62/15 65/61/15
f 64/62/15 68/63/15 67/64/15
f 74/67/2 73/4/2 14/9/2
f 73/4/2 74/67/2 75/80/2
f 78/65/8 77/68/8 76/66/8
f 77/68/8 78/65/8 79/67/8
f 77/88/4 81/87/4 80/86/4
f 81/87/4 77/88/4 79/89/4
f 69/80/3 9/9/3 66/67/3
f 9/9/3 69/80/3 4/4/3
f 83/65/8 72/68/8 82/66/8
f 72/68/8 83/65/8 71/67/8
f 84/90/4 78/89/4 76/88/4
f 78/89/4 84/90/4 85/91/4
f 4/13/5 11/12/5 9/11/5
f 11/12/5 4/13/5 6/14/5
f 6/14/5 4/13/5 86/92/5
f 86/92/5 4/13/5 16/25/5
f 86/92/5 16/25/5 73/93/5
f 73/93/5 16/25/5 14/27/5
f 8/16/5 6/14/5 86/92/5
f 86/8/15 82/81/15 70/63/15
f 82/81/15 86/8/15 73/4/15
f 82/81/15 73/4/15 87/77/15
f 70/63/15 82/81/15 72/82/15
f 73/4/15 84/78/15 87/77/15
f 84/78/15 73/4/15 75/80/15
f 84/78/15 75/80/15 88/79/15
f 87/77/15 76/75/15 80/76/15
f 80/76/15 76/75/15 77/74/15
f 76/77/4 87/75/4 84/81/4
f 4/4/16 83/78/16 16/6/16
f 83/78/16 4/4/16 69/80/16
f 83/78/16 69/80/16 71/79/16
f 89/75/16 16/6/16 83/78/16
f 85/81/16 16/6/16 89/75/16
f 16/6/16 85/81/16 90/71/16
f 90/71/16 85/81/16 91/82/16
f 81/74/16 78/77/16 89/75/16
f 78/77/16 81/74/16 79/76/16
f 85/81/4 89/75/4 78/77/4
f 16/6/1 74/64/1 14/17/1
f 74/64/1 16/6/1 90/71/1
f 75/94/4 91/91/4 88/90/4
f 91/91/4 75/94/4 90/26/4
f 90/26/4 75/94/4 74/28/4
f 87/86/4 83/84/4 82/85/4
f 83/84/4 87/86/4 89/87/4
f 81/64/7 87/61/7 80/63/7
f 87/61/7 81/64/7 89/62/7
f 91/64/7 84/61/7 88/63/7
f 84/61/7 91/64/7 85/62/7
f 8/6/8 51/81/8 61/71/8
f 51/81/8 8/6/8 86/2/8
f 51/81/8 86/2/8 52/77/8
f 52/77/8 86/2/8 56/75/8
f 52/77/8 56/75/8 53/76/8
f 56/75/8 86/2/8 65/78/8
f 65/78/8 86/2/8 68/79/8
f 68/79/8 86/2/8 70/68/8
f 58/74/8 53/76/8 56/75/8
f 63/82/8 61/71/8 51/81/8
g battlement_corner_6

v -0.5625 1.25 0.375
v -0.5625 1.25 0.125
v -0.4375 1.25 0.375
v -0.4375 1.25 0.125
v -0.4375 1.5 0.125
v -0.5625 1.5 0.125
v -0.5625 1.25 -0.125
v -0.4375 1.25 -0.125
v -0.5625 1.5 -0.125
v -0.4375 1.5 -0.125
v -0.4375 1.5 0.5
v -0.5625 1.5 0.375
v -0.4375 1.5 0.375
v -0.5625 1.25 -0.375
v -0.4375 1.25 -0.375
v -0.5625 1.5 -0.5
v -0.5625 1.5 -0.375
v -0.4375 1.5 -0.375
v -0.5 1.5 -0.5625
v -0.4375 1.5 -0.4375
v -0.375 1.5 -0.5625
v -0.375 1.5 -0.4375
v 0.5 1 -0.4375
v 0.5 1.5 -0.4375
v 0.125 1.25 -0.4375
v 0.125 1.5 -0.4375
v 0.125 1.25 -0.5625
v 0.125 1.5 -0.5625
v -0.125 1.5 -0.4375
v -0.125 1.5 -0.5625
v -0.375 1.25 -0.4375
v -0.375 1.25 -0.5625
v 0.375 1.25 -0.4375
v 0.375 1.25 -0.5625
v -0.4375 1 -0.4375
v -0.125 1.25 -0.4375
v 0.375 1.5 -0.4375
v -0.125 1.25 -0.5625
v 0.375 1.5 -0.5625
vt 0.5625 0.375
vt 0.5625 0.125
vt 0.4375 0.375
vt 0.4375 0.125
vt 0.5625 -0.125
vt 0.4375 -0.125
vt 0.5625 -0.375
vt 0.4375 -0.375
vt 0.4375 -0.4375
vt 0.375 -0.5625
vt 0.375 -0.4375
vt 0.125 -0.4375
vt 0.125 -0.5625
vt -0.125 -0.4375
vt -0.125 -0.5625
vt -0.375 -0.4375
vt -0.375 -0.5625
vt 0.4375 0.4375
vt -0.5 0.4375
vt -0.5 -0.4375

usemtl stone (Instance) (Instance)
# usemap stone (Instance) (Instance)
f 94/97/4 93/96/4 92/95/4
f 93/96/4 94/97/4 95/98/4
f 96/63/16 93/62/16 95/61/16
f 93/62/16 96/63/16 97/64/16
f 100/67/15 99/66/15 98/65/15
f 99/66/15 100/67/15 101/68/15
f 96/98/4 100/99/4 97/96/4
f 100/99/4 96/98/4 101/100/4
f 74/64/1 16/6/1 90/71/1
f 16/6/1 74/64/1 14/17/1
f 21/8/3 90/71/3 16/6/3
f 90/71/3 21/8/3 102/63/3
f 90/26/4 103/95/4 74/28/4
f 103/95/4 90/26/4 104/97/4
f 104/97/4 90/26/4 102/24/4
f 99/100/4 105/101/4 98/99/4
f 105/101/4 99/100/4 106/102/4
f 103/67/15 94/66/15 92/65/15
f 94/66/15 103/67/15 104/68/15
f 100/76/8 93/75/8 97/74/8
f 98/77/8 93/75/8 100/76/8
f 20/6/8 93/75/8 98/77/8
f 20/6/8 92/78/8 93/75/8
f 14/4/8 92/78/8 20/6/8
f 14/4/8 103/79/8 92/78/8
f 103/79/8 14/4/8 74/80/8
f 20/6/8 98/77/8 105/81/8
f 20/6/8 105/81/8 107/71/8
f 107/71/8 105/81/8 108/82/8
f 109/102/4 107/27/4 108/101/4
f 107/27/4 109/102/4 110/25/4
f 110/25/4 109/102/4 111/103/4
f 110/25/4 111/103/4 112/104/4
f 112/104/4 111/103/4 113/105/4
f 109/63/16 105/62/16 106/61/16
f 105/62/16 109/63/16 108/64/16
f 60/67/3 114/4/3 11/9/3
f 114/4/3 60/67/3 115/80/3
f 118/65/7 117/68/7 116/66/7
f 117/68/7 118/65/7 119/67/7
f 117/108/4 121/107/4 120/106/4
f 121/107/4 117/108/4 119/109/4
f 110/80/2 20/9/2 107/67/2
f 20/9/2 110/80/2 18/4/2
f 123/65/7 113/68/7 122/66/7
f 113/68/7 123/65/7 112/67/7
f 124/110/4 118/109/4 116/108/4
f 118/109/4 124/110/4 125/111/4
f 18/26/5 14/27/5 20/28/5
f 14/27/5 18/26/5 16/25/5
f 16/25/5 18/26/5 126/112/5
f 126/112/5 18/26/5 6/14/5
f 126/112/5 6/14/5 114/113/5
f 114/113/5 6/14/5 11/12/5
f 21/23/5 16/25/5 126/112/5
f 126/8/16 122/81/16 111/63/16
f 122/81/16 126/8/16 114/4/16
f 122/81/16 114/4/16 127/77/16
f 111/63/16 122/81/16 113/82/16
f 114/4/16 124/78/16 127/77/16
f 124/78/16 114/4/16 115/80/16
f 124/78/16 115/80/16 128/79/16
f 127/77/16 116/75/16 120/76/16
f 120/76/16 116/75/16 117/74/16
f 116/75/4 127/77/4 124/78/4
f 18/4/15 123/78/15 6/6/15
f 123/78/15 18/4/15 110/80/15
f 123/78/15 110/80/15 112/79/15
f 129/75/15 6/6/15 123/78/15
f 125/81/15 6/6/15 129/75/15
f 6/6/15 125/81/15 59/71/15
f 59/71/15 125/81/15 130/82/15
f 121/74/15 118/77/15 129/75/15
f 118/77/15 121/74/15 119/76/15
f 125/78/4 129/77/4 118/75/4
f 6/6/6 60/64/6 11/17/6
f 60/64/6 6/6/6 59/71/6
f 115/114/4 130/111/4 128/110/4
f 130/111/4 115/114/4 59/13/4
f 59/13/4 115/114/4 60/11/4
f 127/106/4 123/104/4 122/105/4
f 123/104/4 127/106/4 129/107/4
f 121/64/8 127/61/8 120/63/8
f 127/61/8 121/64/8 129/62/8
f 130/64/8 124/61/8 128/63/8
f 124/61/8 130/64/8 125/62/8
f 21/6/7 94/81/7 102/71/7
f 94/81/7 21/6/7 126/2/7
f 94/81/7 126/2/7 95/77/7
f 95/77/7 126/2/7 99/75/7
f 95/77/7 99/75/7 96/76/7
f 99/75/7 126/2/7 106/78/7
f 106/78/7 126/2/7 109/79/7
f 109/79/7 126/2/7 111/68/7
f 101/74/7 96/76/7 99/75/7
f 104/82/7 102/71/7 94/81/7
